PathFileType	4	(X/Y/Z)	C:/Users/opensim2020/Desktop/walking_exp_matlab/subject01_walking08_straight_03.trc																																																																																																																															
DataRate	CameraRate	NumFrames	NumMarkers	Units	OrigDataRate	OrigDataStartFrame	OrigNumFrames																																																																																																																											
100	100	5	43	mm	100	2832	326																																																																																																																											
Frame#	Time	LFHD			RFHD			LBHD			RBHD			C7			T10			CLAV			STRN			RBAK			LSHO			LUPA			LELB			LFRM			LWRA			LWRB			LFIN			RSHO			RUPA			RELB			RFRM			RWRA			RWRB			RFIN			LASI			RASI			LPSI			RPSI			LTHI			LKNE			LTIB			LANK			LHEE			LTOE			RTHI			RKNE			RTIB			RANK			RHEE			RTOE			*39			*40			*41			*42		
		X1	Y1	Z1	X2	Y2	Z2	X3	Y3	Z3	X4	Y4	Z4	X5	Y5	Z5	X6	Y6	Z6	X7	Y7	Z7	X8	Y8	Z8	X9	Y9	Z9	X10	Y10	Z10	X11	Y11	Z11	X12	Y12	Z12	X13	Y13	Z13	X14	Y14	Z14	X15	Y15	Z15	X16	Y16	Z16	X17	Y17	Z17	X18	Y18	Z18	X19	Y19	Z19	X20	Y20	Z20	X21	Y21	Z21	X22	Y22	Z22	X23	Y23	Z23	X24	Y24	Z24	X25	Y25	Z25	X26	Y26	Z26	X27	Y27	Z27	X28	Y28	Z28	X29	Y29	Z29	X30	Y30	Z30	X31	Y31	Z31	X32	Y32	Z32	X33	Y33	Z33	X34	Y34	Z34	X35	Y35	Z35	X36	Y36	Z36	X37	Y37	Z37	X38	Y38	Z38	X39	Y39	Z39	X40	Y40	Z40	X41	Y41	Z41	X42	Y42	Z42	X43	Y43	Z43
																																																																																																																																		
123	1.22	-184.56744	1675.56799	-1088.48059	-168.66092	1686.88782	-976.18665	-292.11945	1613.11035	-1075.86963	-278.31995	1623.18152	-956.26117	-303.98834	1431.37097	-1027.19397	-332.96497	1138.17737	-1002.1311	-160.24265	1365.18896	-1027.45251	-113.77155	1210.57104	-1025.99194	-353.12283	1240.00281	-937.82904	-223.56168	1385.04224	-1188.47375	-250.72301	1195.6781	-1263.62878	-262.27832	1045.75037	-1256.72766	-223.33569	938.20441	-1276.77673	-145.61082	823.51398	-1251.06726	-198.74339	818.20892	-1279.05762	-150.86664	747.18762	-1281.85962	-217.20831	1396.86328	-874.66547	-264.55954	1199.94934	-763.25244	-262.7168	1073.82056	-757.92133	-224.66776	959.02148	-727.86749	-135.7399	849.64874	-751.68542	-176.34889	847.39563	-709.39886	-132.27998	773.57391	-713.81226	-156.4473	934.59088	-1104.89807	-158.04659	933.67444	-886.86597	-343.94611	945.64844	-1054.43872	-343.64221	946.09161	-909.49664	-154.17461	608.20514	-1162.3894	-142.71654	475.11533	-1144.45618	-178.62593	286.67651	-1150.90247	-181.38841	68.10311	-1094.64087	-221.28992	38.69559	-1039.07397	-31.36962	36.26968	-1101.4541	-195.24652	597.29456	-817.69244	-192.20908	438.17798	-831.03864	-335.51666	334.85574	-826.79425	-480.07507	187.25424	-872.82611	-534.99774	190.45354	-928.87469	-419.85617	55.74289	-872.43622	-186.93883	1717.17102	-999.28882	1973.07764	1023.58209	-3101.92017	2012.48352	1022.03149	-3140.66992	NaN	NaN	NaN
124	1.23	-177.77338	1675.82031	-1090.65625	-162.05717	1687.0437	-978.33093	-285.40466	1613.48499	-1078.0918	-271.78159	1623.60425	-958.34393	-297.55838	1431.85522	-1029.33203	-327.19211	1138.67126	-1003.74005	-154.004	1365.26221	-1029.1438	-107.87057	1210.62378	-1027.49207	-347.33905	1240.55054	-939.92621	-216.78819	1385.00916	-1190.27222	-242.98795	1195.69836	-1265.70984	-253.49037	1045.5376	-1259.2644	-213.06444	938.42419	-1279.05872	-133.92229	824.93475	-1253.19409	-186.91409	818.8692	-1281.23901	-138.11215	748.72278	-1284.3446	-211.17926	1397.18152	-876.48102	-259.29422	1200.24158	-765.26636	-257.86478	1074.14148	-760.06903	-220.5321	959.10101	-729.87323	-132.29005	849.03107	-753.32111	-173.10161	847.20233	-711.19897	-129.63916	773.00647	-715.36597	-151.18352	934.8374	-1106.6073	-153.13405	933.63995	-889.26154	-338.69586	945.6225	-1055.42322	-337.94159	945.56616	-910.38031	-150.21727	607.98065	-1163.37512	-139.58105	474.79221	-1145.26843	-176.53473	286.46432	-1151.52844	-181.33276	68.08289	-1094.69873	-221.33987	38.76399	-1039.1947	-31.32215	36.14948	-1101.44507	-184.08926	598.50006	-818.68097	-178.32515	439.61389	-832.01373	-322.27997	337.06375	-828.29065	-466.92691	190.15797	-874.05109	-522.21631	192.80359	-930.33203	-406.22787	59.07016	-872.06757	-180.1687	1717.3728	-1001.38965	1973.04919	1023.55646	-3101.96997	2012.54163	1022.06	-3140.69263	NaN	NaN	NaN
125	1.24	-170.92093	1676.03796	-1092.55127	-155.37997	1687.27112	-980.26202	-278.85373	1613.95654	-1080.21936	-265.25702	1624.01062	-960.50415	-291.28873	1432.43787	-1031.26501	-321.52264	1139.20764	-1005.33148	-147.8887	1365.37915	-1030.73682	-102.08334	1210.64453	-1028.94885	-341.63077	1241.1012	-941.9212	-210.13899	1384.98608	-1192.00867	-235.30473	1195.72339	-1267.63184	-244.63861	1045.48547	-1261.65112	-202.75098	938.85883	-1281.39453	-122.2329	826.4176	-1255.29285	-175.06335	819.64288	-1283.37122	-125.21835	750.16052	-1286.36023	-205.34975	1397.43945	-878.18469	-254.18578	1200.47388	-767.27618	-252.96225	1074.41406	-762.18182	-216.37074	959.27386	-731.77075	-128.77975	848.64026	-754.99316	-170.13116	846.98969	-713.01721	-127.02553	772.59906	-716.82288	-146.0182	935.11151	-1108.31006	-146.92738	934.39404	-890.72528	-333.55557	945.67303	-1056.1283	-332.20676	945.37769	-911.16241	-146.15025	607.8717	-1164.40955	-136.38374	474.48557	-1145.96045	-174.34323	286.32883	-1152.00415	-181.19667	67.95497	-1094.71387	-221.3317	38.27452	-1039.01208	-31.24857	36.05641	-1101.4668	-172.91518	599.69421	-819.5661	-164.63423	441.40598	-833.11908	-308.02438	339.01111	-829.69012	-453.82867	192.16525	-875.21912	-508.86703	194.31989	-931.6405	-391.71542	61.93204	-872.10535	-173.41344	1717.48438	-1003.56873	1972.9552	1023.98438	-3102.11646	2012.52307	1022.08722	-3140.6499	NaN	NaN	NaN
126	1.25	-164.03654	1676.1825	-1094.39722	-148.60416	1687.52612	-982.02808	-271.99091	1614.31641	-1082.1344	-258.6803	1624.50684	-962.37189	-285.09644	1432.89795	-1033.14465	-315.95129	1139.7583	-1006.78186	-141.86256	1365.48914	-1032.23511	-96.37492	1210.68091	-1030.3363	-336.0253	1241.65381	-943.7937	-203.58655	1385.02209	-1193.56482	-227.74854	1195.80139	-1269.48889	-235.80756	1045.40942	-1263.99524	-192.48453	939.24878	-1283.55127	-110.58498	827.98224	-1257.38428	-163.35287	820.41705	-1285.38538	-112.70637	751.84857	-1288.7533	-199.51814	1397.78418	-879.82172	-249.0533	1200.74768	-769.20654	-248.04187	1074.75244	-764.30829	-212.38347	959.36029	-733.71539	-126.47584	847.75848	-756.83057	-166.70125	846.73175	-714.63702	-124.26809	772.26978	-718.20898	-140.95604	935.35217	-1109.95386	-141.02354	934.88593	-892.04205	-328.35251	945.74292	-1056.90784	-326.72882	945.38947	-912.10999	-142.18394	607.65448	-1165.21838	-133.26021	474.11139	-1146.60193	-172.18445	286.22552	-1152.43018	-180.99675	68.09662	-1094.79492	-221.33925	38.35442	-1039.00903	-31.146	35.93167	-1101.41467	-162.4897	601.2663	-820.66937	-150.9747	443.2341	-834.29919	-294.12781	340.56854	-831.01556	-439.55899	193.84377	-876.5387	-495.19958	194.83202	-933.14233	-375.64465	64.56911	-872.45697	-166.60965	1717.72156	-1005.44745	1973.13989	1023.55145	-3101.83936	2012.48865	1021.98724	-3140.75122	NaN	NaN	NaN
127	1.26	-157.11603	1676.32886	-1096.22363	-141.87439	1687.71985	-983.69189	-265.23224	1614.7179	-1083.90857	-252.08983	1625.03894	-964.20636	-278.88705	1433.33313	-1034.92712	-310.4122	1140.29028	-1008.19995	-135.86697	1365.66016	-1033.70447	-90.71322	1210.77734	-1031.7334	-330.37741	1242.17859	-945.62384	-197.23207	1385.02844	-1195.08679	-220.2393	1195.90601	-1271.20056	-227.04477	1045.36316	-1266.18494	-182.20859	939.88373	-1285.6593	-98.97723	829.67163	-1259.42493	-151.57747	821.34595	-1287.40759	-99.80489	753.56372	-1290.7478	-193.80664	1398.22412	-881.30859	-244.12112	1200.98889	-771.13965	-243.2211	1075.05835	-766.34644	-208.42625	959.54736	-735.60052	-123.21417	847.4035	-758.42218	-163.56493	846.65167	-716.26538	-121.54471	771.96478	-719.59106	-135.95058	935.43225	-1111.81104	-135.32101	935.6311	-893.68512	-323.13095	945.87976	-1057.68201	-320.85361	945.84229	-912.79688	-138.24457	607.3833	-1165.84399	-130.42766	473.77444	-1146.99426	-170.23709	286.1355	-1152.64526	-180.85085	68.10045	-1094.72961	-221.32394	38.44935	-1039.00146	-31.06077	35.8337	-1101.42432	-151.66025	602.63629	-821.82971	-137.35498	444.94858	-835.53131	-279.96335	341.66055	-832.50104	-425.26782	194.59975	-878.04028	-481.12244	194.3049	-934.54431	-358.62341	66.72343	-872.97583	-159.72292	1717.94543	-1007.23523	1973.19604	1023.36829	-3101.99097	2012.5957	1021.99487	-3140.56567	NaN	NaN	NaN
